<svg xmlns="http://www.w3.org/2000/svg" width="90" height="33" viewBox="0 0 90 33">
    <g fill="none" fill-rule="evenodd">
        <path fill="#00B2C8" d="M6.762 19.353c.432-2.241 1.44-4.626 3.398-6.735.274-.296 4.827-5.053 11.224-4.736 1.367-3.765 1.214-7.08 1.16-7.799l-.089-.014a5.283 5.283 0 0 0-.86-.069H5.45a5.45 5.45 0 0 0-5.45 5.451v13.543c.16.04.322.077.486.113 1.73.37 3.922.534 6.275.246"/>
        <path fill="#BF6E2A" d="M10.16 12.618c-1.959 2.109-2.966 4.494-3.398 6.735 3.093-.378 6.467-1.536 9.447-4.032 2.704-2.265 4.271-4.95 5.174-7.44-6.396-.316-10.949 4.441-11.223 4.737"/>
        <path fill="#CDE7EE" d="M6.784 25.039c-.32-1.514-.437-3.533-.022-5.686-2.354.288-4.544.125-6.275-.247A13.417 13.417 0 0 1 0 18.993V32.74a19.86 19.86 0 0 1 7.151-6.36h.001c-.067-.239-.217-.772-.305-1.096a5.725 5.725 0 0 1-.063-.244M22.86 8.046c1.81.31 3.25.956 4.193 1.486V5.46a5.444 5.444 0 0 0-1.599-3.86 5.641 5.641 0 0 0-2.878-1.51l-.032-.006c.053.72.207 4.033-1.16 7.799.351.017.707.046 1.07.096.133.018.269.042.406.068"/>
        <path fill="#FAA81B" d="M6.847 25.283c.088.325.238.858.305 1.095l-.012-.043c-.066-.237-.209-.74-.293-1.052"/>
        <path fill="#FAA81B" d="M27.053 9.752v-.22a13.135 13.135 0 0 0-4.193-1.486c-.135-.023-.267-.049-.407-.068-.362-.05-.718-.079-1.07-.096-.903 2.489-2.47 5.174-5.173 7.439-2.98 2.496-6.355 3.654-9.448 4.032-.415 2.152-.299 4.172.022 5.686.008.04.032.13.063.244.084.313.227.816.293 1.052.102-.004.21-.065.298-.11.058-.028.118-.053.177-.082a9.752 9.752 0 0 1 4.324-.953l9.607.105a5.457 5.457 0 0 0 5.518-5.458l-.01-10.085z"/>
        <path fill="#1C6D55" d="M42.962 28.574c-.025-.002-.051-.002-.078-.002l.023.066.055-.064z"/>
        <path fill="#212121" d="M40.207 15.572L35.844 3.51h2.695l2.028 5.98c.256.77.641 1.925.898 2.824h.051l.924-2.875 2.002-5.93h2.72L42.8 15.573v5.904h-2.593v-5.904zM54.247 16.65V12.75c0-1.9-.847-2.72-2.26-2.72-1.385 0-2.232.82-2.232 2.72v3.902c0 1.9.847 2.72 2.233 2.72 1.412 0 2.259-.82 2.259-2.72m-7.007 0v-3.902c0-3.311 1.822-5.133 4.748-5.133 2.952 0 4.774 1.822 4.774 5.133v3.902c0 3.31-1.822 5.133-4.774 5.133-2.926 0-4.748-1.822-4.748-5.133M67.362 9.31c0-2.208-.95-3.337-2.9-3.337h-2.13v6.724h2.13c1.95 0 2.9-1.077 2.9-3.387m2.644 0c0 3.773-2.003 5.852-5.519 5.852h-2.155v6.314h-2.593V3.51h4.748c3.516 0 5.519 2.13 5.519 5.8M79.014 7.847v2.464c-.487-.206-1-.309-1.668-.309-1.694 0-2.772 1.104-2.772 3.132v8.342h-2.49V7.95h1.771l.283 1.566c.692-1.181 1.847-1.874 3.464-1.874.565 0 1.028.052 1.412.206M87.408 16.65V12.75c0-1.9-.847-2.72-2.26-2.72-1.385 0-2.232.82-2.232 2.72v3.902c0 1.9.847 2.72 2.233 2.72 1.412 0 2.259-.82 2.259-2.72m-7.007 0v-3.902c0-3.311 1.822-5.133 4.748-5.133 2.952 0 4.774 1.822 4.774 5.133v3.902c0 3.31-1.822 5.133-4.774 5.133-2.926 0-4.748-1.822-4.748-5.133"/>
    </g>
</svg>
