<svg xmlns="http://www.w3.org/2000/svg" xmlns:xlink="http://www.w3.org/1999/xlink" width="121" height="44" viewBox="0 0 121 44">
    <defs>
        <path id="a" d="M0 26.492V.475h30.14v26.017z"/>
        <path id="c" d="M0 .118v18.339h9.548V.117z"/>
    </defs>
    <g fill="none" fill-rule="evenodd">
        <g transform="translate(0 -.268)">
            <mask id="b" fill="#fff">
                <use xlink:href="#a"/>
            </mask>
            <path fill="#00B2C8" d="M9.027 26.297c.577-2.99 1.922-6.173 4.536-8.988.367-.393 6.445-6.74 14.984-6.318 1.826-5.024 1.62-9.446 1.549-10.405-.04-.008-.078-.012-.118-.019a7.063 7.063 0 0 0-1.15-.092H7.278A7.275 7.275 0 0 0 0 7.748v18.07c.215.052.431.103.65.15 2.31.495 5.235.712 8.377.329" mask="url(#b)"/>
        </g>
        <path fill="#BF6E2A" d="M13.563 17.041c-2.614 2.814-3.96 5.997-4.536 8.988 4.13-.505 8.634-2.05 12.613-5.381 3.61-3.021 5.7-6.605 6.907-9.925-8.54-.422-14.618 5.924-14.984 6.318"/>
        <g transform="translate(0 25.43)">
            <mask id="d" fill="#fff">
                <use xlink:href="#c"/>
            </mask>
            <path fill="#CDE7EE" d="M9.057 8.183c-.428-2.019-.584-4.714-.03-7.586C5.885.981 2.961.763.65.27A20.189 20.189 0 0 1 0 .118v18.34A26.527 26.527 0 0 1 9.547 9.97h.001c-.09-.318-.29-1.029-.407-1.461a7.887 7.887 0 0 1-.084-.327" mask="url(#d)"/>
        </g>
        <path fill="#CDE7EE" d="M30.519 10.942a17.549 17.549 0 0 1 5.597 1.983V7.49a7.257 7.257 0 0 0-2.135-5.15C33.67 2.03 32.3.724 30.139.324l-.043-.007c.072.96.276 5.382-1.549 10.406.47.023.944.061 1.428.128.178.024.36.055.544.091"/>
        <path fill="#FAA81B" d="M9.14 33.94c.117.433.319 1.144.408 1.461l-.016-.057c-.088-.316-.279-.986-.392-1.404"/>
        <path fill="#FAA81B" d="M36.116 13.219v-.294a17.542 17.542 0 0 0-5.598-1.983c-.18-.031-.357-.065-.543-.091a16.31 16.31 0 0 0-1.428-.128c-1.207 3.32-3.298 6.904-6.907 9.925-3.979 3.33-8.484 4.876-12.613 5.38-.554 2.872-.399 5.567.03 7.586.01.053.042.174.083.327.113.417.303 1.087.392 1.403l.016.058c.12-.063.264-.144.382-.204.077-.04.157-.073.235-.11a13.014 13.014 0 0 1 5.773-1.271l12.826.14a7.285 7.285 0 0 0 7.366-7.283l-.014-13.455z"/>
        <path fill="#1C6D55" d="M57.355 38.33c-.035 0-.07 0-.105-.002l.03.087.075-.084z"/>
        <path fill="#FFF" d="M53.676 20.984L47.851 4.888h3.598l2.707 7.98c.342 1.027.857 2.568 1.2 3.767h.068l1.233-3.836 2.673-7.91h3.632l-5.825 16.095v7.877h-3.46v-7.877zM72.419 22.423v-5.206c0-2.535-1.13-3.63-3.016-3.63-1.85 0-2.98 1.095-2.98 3.63v5.206c0 2.533 1.13 3.63 2.98 3.63 1.885 0 3.016-1.097 3.016-3.63m-9.354 0v-5.206c0-4.418 2.432-6.849 6.338-6.849 3.941 0 6.373 2.43 6.373 6.849v5.206c0 4.418-2.432 6.848-6.373 6.848-3.906 0-6.338-2.43-6.338-6.848M89.928 12.628c0-2.945-1.268-4.452-3.872-4.452h-2.844v8.972h2.844c2.604 0 3.872-1.438 3.872-4.52m3.529 0c0 5.034-2.673 7.808-7.367 7.808h-2.878v8.424h-3.461V4.888h6.339c4.694 0 7.367 2.843 7.367 7.74M105.483 10.676v3.287c-.65-.273-1.336-.41-2.227-.41-2.262 0-3.7 1.472-3.7 4.178v11.13h-3.324V10.813h2.364l.377 2.089c.925-1.576 2.467-2.5 4.626-2.5.754 0 1.37.068 1.884.274M116.688 22.423v-5.206c0-2.535-1.13-3.63-3.015-3.63-1.85 0-2.981 1.095-2.981 3.63v5.206c0 2.533 1.13 3.63 2.98 3.63 1.886 0 3.016-1.097 3.016-3.63m-9.354 0v-5.206c0-4.418 2.432-6.849 6.339-6.849 3.94 0 6.373 2.43 6.373 6.849v5.206c0 4.418-2.432 6.848-6.373 6.848-3.907 0-6.339-2.43-6.339-6.848"/>
    </g>
</svg>
