<?xml version="1.0" encoding="utf-8"?>
<!-- Generator: Adobe Illustrator 23.0.1, SVG Export Plug-In . SVG Version: 6.00 Build 0)  -->
<svg version="1.1" id="Layer_1" xmlns="http://www.w3.org/2000/svg" xmlns:xlink="http://www.w3.org/1999/xlink" x="0px" y="0px"
	 viewBox="0 0 174 175" style="enable-background:new 0 0 174 175;" xml:space="preserve">
<style type="text/css">
	.st0{fill-rule:evenodd;clip-rule:evenodd;fill:#222222;}
</style>
<title  id="pbs-search__title">Search</title>
<path class="st0" d="M98,97.9c-17.8,17.8-46.8,17.8-64.6,0s-17.8-46.8,0-64.6s46.8-17.8,64.6,0S115.8,80.1,98,97.9 M112.1,19.2
	C85.3-7.5,41.2-6.4,16,22.7c-20.8,24-21.3,60.1-1.1,84.6c22.7,27.7,62.6,31.1,89.6,11.4l55.3,55.3c0.8,0.8,2,0.8,2.8,0l11.3-11.3
	c0.8-0.8,0.8-2,0-2.8l-55.3-55.3C137.7,78.6,135.3,42.4,112.1,19.2"/>
</svg>
